<?xml version="1.0" encoding="UTF-8" standalone="no"?>
<svg
   width="48"
   height="48"
   viewBox="0 0 48 48"
   version="1.1"
   id="svg1"
   sodipodi:docname="_lark_viewcontainer_icon.svg"
   inkscape:version="1.4.2 (ebf0e940d0, 2025-05-08)"
   inkscape:export-filename="_lark_viewcontainer_icon.png"
   inkscape:export-xdpi="96"
   inkscape:export-ydpi="96"
   xmlns:inkscape="http://www.inkscape.org/namespaces/inkscape"
   xmlns:sodipodi="http://sodipodi.sourceforge.net/DTD/sodipodi-0.dtd"
   xmlns="http://www.w3.org/2000/svg"
   xmlns:svg="http://www.w3.org/2000/svg">
  <defs
     id="defs1" />
  <sodipodi:namedview
     id="namedview1"
     pagecolor="#ffffff"
     bordercolor="#999999"
     borderopacity="1"
     inkscape:showpageshadow="2"
     inkscape:pageopacity="0"
     inkscape:pagecheckerboard="0"
     inkscape:deskcolor="#d1d1d1"
     inkscape:zoom="9.1796875"
     inkscape:cx="-5.3378723"
     inkscape:cy="48.422128"
     inkscape:window-width="3440"
     inkscape:window-height="1371"
     inkscape:window-x="0"
     inkscape:window-y="0"
     inkscape:window-maximized="1"
     inkscape:current-layer="svg1" />
  <path
     d="m 3,37.893564 6.2881932,-0.29682 0.9166948,-1.188693 c 0.972379,-1.260915 1.926121,-3.616848 1.647016,-4.068441 -0.391628,-0.633705 2.185795,-7.292618 4.623772,-11.945671 2.81266,-5.368152 4.112205,-7.064068 6.262373,-8.172459 0.740276,-0.381622 1.447533,-1.013893 1.571702,-1.405107 C 24.727296,9.5008131 23.626746,7.7085033 21.809426,6.7444158 20.875325,6.2488692 20.111063,5.7388377 20.111063,5.6109867 c 0,-0.307161 1.404358,-0.6725868 2.60878,-0.6788418 0.528954,-0.00276 1.157362,-0.2407185 1.396461,-0.5288184 0.558793,-0.6733053 3.800571,-1.3722615 5.076887,-1.0946217 2.994904,0.6514776 3.260356,1.0284279 7.840972,11.1347972 1.023351,2.257834 1.573143,4.556232 1.006062,4.205758 -0.21129,-0.130587 -0.360498,0.325319 -0.360498,1.101446 0,0.736017 -0.15327,1.229517 -0.345054,1.110989 -0.18981,-0.117312 -0.679425,0.542637 -1.088094,1.466483 -1.175142,2.656603 -3.418227,4.909256 -6.548952,6.57685 -1.54842,0.824789 -2.815314,1.724501 -2.815314,1.999355 0,0.27489 0.706454,0.873318 1.569877,1.329909 0.863424,0.456603 1.864823,1.19442 2.225324,1.639626 l 0.655467,0.80946 2.662569,-0.808728 c 2.42058,-0.735225 2.719926,-0.756819 3.293691,-0.23757 0.80346,0.727119 1.307124,0.717294 3.926517,-0.0765 C 43.783794,32.78232 45,32.881035 45,33.867735 c 0,0.558642 -0.25887,0.706581 -1.236405,0.706581 -0.86916,0 -1.395762,0.24 -1.772943,0.808074 -0.508698,0.766131 -0.635937,0.785127 -2.451657,0.365991 -1.053312,-0.24315 -2.613846,-0.442077 -3.467823,-0.442077 -1.976226,0 -5.324943,0.984069 -5.576121,1.638618 -0.10569,0.27546 -0.435069,0.594069 -0.731936,0.707988 -0.32947,0.12645 -0.444148,0.05244 -0.294378,-0.1899 0.152169,-0.24621 -0.01431,-0.340629 -0.438527,-0.24858 -0.376134,0.08163 -0.630921,0.385728 -0.566223,0.675714 0.09435,0.422619 0.02535,0.436497 -0.347728,0.06972 -0.255969,-0.25164 -1.286511,-0.457524 -2.29014,-0.457524 -1.383885,0 -2.040441,0.19896 -2.717375,0.823527 l -0.892583,0.823542 0.257349,-0.836766 0.257352,-0.836769 -3.94631,0.16599 C 14.418975,37.825503 14.568393,37.74453 12.965217,40.796481 11.280228,44.004216 9.0702273,45.69654 8.5109619,44.207349 8.3734542,43.841175 8.0222199,43.362546 7.7304423,43.143714 7.3934544,42.890973 7.2597267,42.338598 7.3638048,41.62935 L 7.5276852,40.512882 3,40.286607 Z m 16.534721,-2.338215 c 1.192817,-0.248079 2.22418,-0.617337 2.291925,-0.820551 0.06778,-0.203214 -0.520254,-0.997776 -1.306641,-1.765665 l -1.429797,-1.396158 -1.502648,2.034054 c -0.826447,1.118721 -1.502645,2.123439 -1.502645,2.232687 0,0.300969 1.052694,0.2142 3.449806,-0.284367 z m 8.353902,-1.172823 c 0.24315,-1.271946 -1.612332,-2.864772 -3.08532,-2.648598 -0.567648,0.08328 -1.032085,0.0153 -1.032085,-0.15114 0,-0.16641 -0.57647,-0.302637 -1.281058,-0.302637 -0.704574,0 -1.281046,0.11787 -1.281046,0.26193 0,0.14409 0.77616,1.049955 1.724813,2.013078 1.512176,1.53528 1.912994,1.751139 3.251447,1.751139 1.341638,0 1.54805,-0.1119 1.703249,-0.923793 z"
     fill="#101828"
     id="path1"
     style="fill:#000000;fill-opacity:1;stroke-width:3" />
</svg>
