<svg
  width="16"
  height="16"
  viewBox="0 0 16 16"
  xmlns="http://www.w3.org/2000/svg">
  <path
    d="m 1,12.631188 2.0960644,-0.09894 0.3055651,-0.396231 C 3.7257558,11.715712 4.0436695,10.930401 3.9506347,10.77987 3.820092,10.568635 4.6792331,8.3489975 5.4918919,6.7979798 6.4294455,5.0085955 6.862627,4.4432903 7.5793495,4.0738266 7.8261084,3.9466192 8.0618606,3.7358623 8.1032502,3.6054578 8.242432,3.1669377 7.8755819,2.5695011 7.2698088,2.2481386 6.9584417,2.0829564 6.7036878,1.9129459 6.7036878,1.8703289 c 0,-0.102387 0.4681191,-0.2241956 0.8695933,-0.2262806 C 7.7495989,1.6431295 7.9590683,1.5638088 8.038768,1.4677755 8.2250323,1.2433404 9.305625,1.010355 9.7310638,1.1029016 c 0.9983012,0.2171592 1.0867852,0.3428093 2.6136572,3.7115992 0.341117,0.7526111 0.524381,1.518744 0.335354,1.4019192 -0.07043,-0.043529 -0.120166,0.1084397 -0.120166,0.3671488 0,0.2453389 -0.05109,0.4098389 -0.115018,0.3703296 -0.06327,-0.039104 -0.226475,0.1808789 -0.362698,0.4888275 -0.391714,0.8855343 -1.139409,1.6364186 -2.1829839,2.1922836 -0.51614,0.2749294 -0.9384382,0.5748335 -0.9384382,0.6664515 0,0.09163 0.2354847,0.291106 0.5232924,0.443303 0.2878081,0.152201 0.6216077,0.39814 0.7417747,0.546542 l 0.218489,0.26982 0.887523,-0.269576 c 0.80686,-0.245075 0.906642,-0.252273 1.097897,-0.07919 0.26782,0.242373 0.435708,0.239098 1.308839,-0.0255 C 14.594598,10.92744 15,10.960345 15,11.289245 c 0,0.186214 -0.08629,0.235527 -0.412135,0.235527 -0.28972,0 -0.465254,0.08 -0.590981,0.269358 -0.169566,0.255377 -0.211979,0.261709 -0.817219,0.121997 -0.351104,-0.08105 -0.871282,-0.147359 -1.155941,-0.147359 -0.658742,0 -1.774981,0.328023 -1.858707,0.546206 -0.03523,0.09182 -0.145023,0.198023 -0.2439787,0.235996 -0.1098233,0.04215 -0.1480494,0.01748 -0.098126,-0.0633 0.050723,-0.08207 -0.00477,-0.113543 -0.1461757,-0.08286 -0.1253779,0.02721 -0.210307,0.128576 -0.1887409,0.225238 0.031449,0.140873 0.00845,0.145499 -0.1159095,0.02324 -0.085323,-0.08388 -0.4288368,-0.152508 -0.7633797,-0.152508 -0.4612952,0 -0.6801471,0.06632 -0.9057917,0.274509 l -0.2975277,0.274514 0.085783,-0.278922 0.085784,-0.278923 -1.3154369,0.05533 C 4.806325,12.608501 4.8561309,12.58151 4.3217391,13.598827 3.7600759,14.668072 3.0234091,15.23218 2.8369873,14.735783 2.7911514,14.613725 2.6740733,14.454182 2.5768141,14.381238 2.4644848,14.296991 2.4199089,14.112866 2.4546016,13.87645 L 2.5092284,13.504294 1,13.428869 Z M 6.5115736,11.851783 C 6.9091792,11.76909 7.252967,11.646004 7.2755487,11.578266 7.298143,11.510528 7.1021308,11.245674 6.8400016,10.989711 L 6.3634027,10.524325 5.86252,11.202343 c -0.2754823,0.372907 -0.5008817,0.707813 -0.5008817,0.744229 0,0.100323 0.3508981,0.0714 1.1499353,-0.09479 z m 2.7846339,-0.390941 c 0.08105,-0.423982 -0.5374439,-0.954924 -1.0284398,-0.882866 -0.1892161,0.02776 -0.3440283,0.0051 -0.3440283,-0.05038 0,-0.05547 -0.1921569,-0.100879 -0.4270194,-0.100879 -0.234858,0 -0.4270153,0.03929 -0.4270153,0.08731 0,0.04803 0.2587198,0.349985 0.5749376,0.671026 0.5040588,0.51176 0.6376647,0.583713 1.0838157,0.583713 0.4472128,0 0.5160165,-0.0373 0.5677495,-0.307931 z"
    fill="#101828" />
</svg>
